<?xml version="1.0" encoding="UTF-8"?>
<!DOCTYPE svg PUBLIC "-//W3C//DTD SVG 1.1//EN" "http://www.w3.org/Graphics/SVG/1.1/DTD/svg11.dtd">
<!-- Creator: CorelDRAW 2020 (64-Bit) -->
<svg xmlns="http://www.w3.org/2000/svg" xml:space="preserve" width="609px" height="609px" version="1.1" style="shape-rendering:geometricPrecision; text-rendering:geometricPrecision; image-rendering:optimizeQuality; fill-rule:evenodd; clip-rule:evenodd"
viewBox="0 0 160.61 160.61"
 xmlns:xlink="http://www.w3.org/1999/xlink"
 xmlns:xodm="http://www.corel.com/coreldraw/odm/2003">
 <defs>
  <style type="text/css">
   <![CDATA[
    .fil1 {fill:none}
    .fil0 {fill:#9C1027}
   ]]>
  </style>
 </defs>
 <g id="Layer_x0020_1">
  <metadata id="CorelCorpID_0Corel-Layer"/>
  <path class="fil0" d="M100.53 132.73c1.41,-1.27 10.79,-7.07 13.19,-8.59l9.94 -6.34c1.41,-0.88 2.15,-0.98 2.17,-3.14 0.07,-7.23 0.01,-14.47 0.02,-21.71 0.01,-4.56 -0.22,-18.25 0.06,-21.69 1.21,0.46 4.83,2.88 5.86,3.65l-0.07 45.09c-1.82,1.53 -10.05,6.36 -12.81,8.17l-12.85 8.23c-1.07,-0.42 -5.05,-2.78 -5.51,-3.67zm-71.51 -58.05c0.78,-0.62 4.81,-3.43 5.75,-3.6 0.22,12.75 0.01,26.63 0.06,39.5 0.01,4.1 -0.71,5.5 1.48,6.88l10.46 6.49c2.54,1.55 4.58,2.91 7.1,4.43 1.23,0.74 6.3,3.69 6.76,4.64 -1.3,0.68 -4.31,2.98 -5.68,3.35l-13.05 -8.22c-2.23,-1.42 -4.3,-2.69 -6.54,-4.09 -1.81,-1.12 -4.89,-2.83 -6.36,-4.04l0.02 -45.34zm51.07 -5.02c1.04,-0.4 10.81,6.15 12.29,7.11l6.03 3.91c1,0.8 0.58,3.03 0.58,4.36 0,2.29 0.05,14.14 -0.18,14.75 -0.21,0.56 -10.6,7.16 -11.87,7.97 -7.97,5.04 -4.93,4.95 -12.31,0.31 -2.01,-1.26 -3.98,-2.58 -6.03,-3.91 -2.03,-1.3 -4.02,-2.5 -6.09,-3.86 -0.74,-0.49 -0.74,-0.51 -0.77,-1.68l0.11 -17.31c0.3,-0.71 10.52,-6.98 11.99,-7.89 1.63,-1.02 4.57,-3.12 6.25,-3.76zm-34.56 3.63c-0.02,-3.23 0.1,-2.55 5.81,-6.09 3.57,-2.22 28.15,-18.06 28.93,-18.06 0.29,0 16.39,9.91 18.07,11.28 1.06,0.86 0.66,5.22 0.65,7.43 -0.86,-0.14 -11.15,-6.87 -12.82,-7.93 -1.78,-1.14 -5.27,-3.91 -6.47,-3.26l-19.13 12.08c-2.14,1.35 -4.28,2.7 -6.41,3.98 -1.03,0.61 -2.65,1.23 -2.83,2.38l0.06 28.7c-0.01,2.02 -0.28,2.37 1.11,3.35l11.21 7.09c2.43,1.51 21.57,13.68 22.15,14.39l-5.37 3.56c-1.18,-0.46 -3.6,-2.23 -4.81,-3.01l-22.96 -14.57c-7.53,-4.84 -7.17,-3.39 -7.17,-7.65l-0.02 -33.67zm10.14 -33.43c6.91,-4.7 15.2,-9.58 22.32,-14.27 1.88,-1.25 1.87,-1.77 3.87,-0.45l33.51 21.24 -0.08 -12.68 -30.57 -19.11c-0.98,-0.62 -3.38,-2.33 -4.45,-2.66 -0.59,0.01 -16.5,10.31 -17.46,10.91 -3.99,2.49 -14.16,8.69 -17.32,10.94l-0.11 17.56c-0.86,0.8 -2.33,1.6 -3.49,2.34l-17.73 11.2c-1.27,0.79 -2.3,1.44 -3.6,2.27 -1.72,1.09 -2.25,0.78 -2.25,3.43l-0.02 44.29c0.02,12.15 -1.29,10.23 3.5,13.28l29.23 18.23c0.97,0.58 3.23,2.52 4.42,2.02 0.8,-0.33 3.25,-2.07 4.18,-2.64l16.68 -10.44c1,-0.62 3.23,-2.2 4.19,-2.52l15.84 9.86c2.64,1.63 5.28,3.35 7.89,4.99 2.37,1.48 1.67,1.3 3.95,-0.13l31.27 -19.59c2.7,-1.7 2.94,-1.43 2.94,-3.34l-0.01 -50.17c0,-3.75 0.65,-5.46 -1.36,-6.72 -3.21,-2 -24.74,-15.75 -25.67,-15.98l-0.03 50.5c0.01,9.78 0.9,7.39 -5.38,11.35l-12.78 8.05c-1.3,0.64 -5.91,-2.94 -6.18,-3.36 1.29,-1.15 3.6,-2.44 5.1,-3.4l10.22 -6.51c2.97,-1.97 3.17,-0.89 3.18,-5.23l0.02 -48.59c-0.01,-3.32 0.61,-4.1 -1.45,-5.4l-10.4 -6.55c-4.67,-2.93 -9.16,-5.75 -13.87,-8.73 -0.8,-0.51 -2.8,-2.15 -3.83,-1.84 -1.02,0.31 -23.03,14.78 -24.33,15.24l0.06 -7.39z"/>
  <rect class="fil1" width="160.61" height="160.61"/>
 </g>
</svg>
